# xmcd
#
# Track frame offsets:
#	150
#	12715
#	33344
#	47625
#	63601
#	77859
#	93227
#	114779
#	129464
#	145371
#	161139
#	173414
#
# Disc length: 2554 seconds
#
# Revision: 1
# Processed by: cddbd v1.5.2PL0 Copyright (c) Steve Scherf et al.
# Submitted via: audiograbber 1.83.01
#
DISCID=9b09f80c
DTITLE=Toby Keith - American Ride
DYEAR=2009
DGENRE=Country
TTITLE0=American Ride
TTITLE1=Gypsy Driftin'
TTITLE2=Are You Feelin' Me
TTITLE3=Every Dog Has Its Day
TTITLE4=Woke Up On My Own
TTITLE5=If You're Tryin' You Ain't
TTITLE6=Cryin' For Me (Wayman's Song)
TTITLE7=If I Had One
TTITLE8=You Can't Read My Mind
TTITLE9=Tender As I Wanna Be
TTITLE10=Loaded
TTITLE11=Ballad Of Balad
EXTD=
EXTT0=
EXTT1=
EXTT2=
EXTT3=
EXTT4=
EXTT5=
EXTT6=
EXTT7=
EXTT8=
EXTT9=
EXTT10=
EXTT11=
PLAYORDER=
